<?xml version="1.0" encoding="UTF-8"?>
<svg xmlns="http://www.w3.org/2000/svg" xmlns:xlink="http://www.w3.org/1999/xlink" width="72px" height="54px" viewBox="0 0 72 54">
  <!-- Generator: Sketch 42 (36781) - http://www.bohemiancoding.com/sketch -->
  <title>Logo Copy</title>
  <desc>Created with Sketch.</desc>
  <defs></defs>
  <g id="Homepage" stroke="none" stroke-width="1" fill="none" fill-rule="evenodd">
    <g id="Medium-Device-Desktops" transform="translate(-576.000000, -5254.000000)">
      <g id="CTA" transform="translate(-40.000000, 5106.000000)">
        <g id="Logo-Copy" transform="translate(616.000000, 148.000000)">
          <path d="M23.7683964,0.129256156 C24.7138362,0.0270107225 25.6336169,0.0121218818 26.5927212,0.0121218818 C41.1587068,0.0121218818 52.8543424,11.7250341 52.9646072,26.453109 C52.8665298,31.0135613 49.734795,34.6378828 45.4725117,34.6378828 C41.168829,34.6378828 37.4411663,31.6106944 37.4411663,26.453109 C37.4411663,20.5429009 32.3229875,15.8721552 26.1726019,15.8721552 C20.0222164,15.8721552 15.5956496,20.9343651 15.5127273,26.9995942 C15.5126025,37.6249904 21.6517379,47.6171245 30.2183652,52.0717844 C30.9486087,52.5268564 31.2356557,52.5756456 31.8976189,52.9452187 C29.9916607,53.4710713 27.7956398,53.6556664 26.5927212,53.6556664 C11.910213,53.6556664 0,41.8153644 0,26.9995935 C0,13.2490632 10.3229303,1.56633133 23.7683964,0.129256156 Z" id="Shape" fill="#49AAF6" fill-rule="nonzero"></path>
          <path d="M39.7552985,0.575789399 C49.702522,4.40788526 56.2511648,15.6597338 56.3356798,26.9899284 C56.2013226,33.3183014 50.9947643,37.8980062 45.4831695,37.8980103 C39.9715747,37.8980144 34.2563248,34.0080217 34.2563248,26.9899284 C34.2563248,22.3011254 30.6746206,19.121742 26.19099,19.121742 C21.9652387,19.121742 18.7414771,22.5382681 18.7414813,26.9899284 C18.7414849,30.8566461 19.4983755,33.0338416 19.8761282,34.6289231 C20.2538809,36.2240047 21.7499419,39.1976389 21.7867818,39.269957 C21.9285805,39.5519117 23.3512283,42.1465661 25.1618224,44.3098271 C26.8653913,46.3452165 28.9621488,47.9606915 29.1186773,48.0852252 C29.2671204,48.2028771 30.4243261,49.0685354 30.8685718,49.3653634 C31.0321842,49.4743803 33.9082659,51.2882761 36.7438581,52.1918174 C39.5754228,53.0940754 41.9677649,53.6196302 45.117575,53.6196302 C59.7603451,53.6196302 71.7843901,41.8054234 71.7843901,26.9899284 C71.7843901,12.1744334 60.1212751,0.0316223011 45.2629357,0.0316223011 C43.6788207,0.0316223011 41.2635667,0.305945763 39.7552985,0.575789399 Z" id="Imported-Layers" fill="#B2DDFE"></path>
        </g>
      </g>
    </g>
  </g>
</svg>
