<?xml version="1.0" encoding="UTF-8"?> <svg xmlns="http://www.w3.org/2000/svg" xmlns:xlink="http://www.w3.org/1999/xlink" version="1.1" id="Layer_1" x="0px" y="0px" viewBox="0 0 240 146" style="enable-background:new 0 0 240 146;" xml:space="preserve"> <style type="text/css"> .st0{fill:#FFFFFF;} .st1{fill:url(#SVGID_1_);} .st2{fill:url(#SVGID_00000118369556143425121090000012959214703425450132_);} .st3{fill:url(#SVGID_00000142897927658858796640000017555310780529253532_);} .st4{fill:url(#SVGID_00000029734796214516292260000017963404935902070656_);} .st5{fill:url(#SVGID_00000035492302745548630260000016414450907439502009_);} .st6{fill:url(#SVGID_00000182530789532178520110000000845669411608917909_);} .st7{fill:none;stroke:url(#SVGID_00000178190531289742512610000014307217531563068843_);stroke-width:0.6773;stroke-miterlimit:10;} .st8{fill:#E5E5E5;} .st9{fill:#01BCA3;} .st10{fill:#808BDF;} .st11{fill:none;stroke:#FFFFFF;stroke-width:0.4255;stroke-linecap:round;stroke-linejoin:round;stroke-miterlimit:10;} .st12{fill:url(#SVGID_00000031916998975148377850000006362345038904884104_);} .st13{fill:url(#SVGID_00000093857574177529996010000010120814270531689642_);} .st14{fill:url(#SVGID_00000073693395695817810790000007784478178010586243_);} .st15{fill:url(#SVGID_00000102526700549076975140000015098623109120990375_);} .st16{fill:url(#SVGID_00000106830132756616454900000006348627230294998404_);} .st17{fill:url(#SVGID_00000020399061237365086940000011135090154764677818_);} .st18{fill:#242954;} .st19{opacity:0.75;fill:#CBCBCB;} .st20{opacity:0.5;fill:#FFFFFF;} .st21{fill:none;stroke:#FFFFFF;stroke-width:0.5146;stroke-linecap:round;stroke-linejoin:round;stroke-miterlimit:10;} .st22{fill:none;stroke:#FFFFFF;stroke-width:0.2065;stroke-linecap:round;stroke-linejoin:round;stroke-miterlimit:10;} .st23{opacity:0.25;fill:#FFFFFF;} .st24{opacity:0.75;fill:#D8D8D8;} .st25{fill:#D8D8D8;} .st26{opacity:0.75;fill:#3A608D;} .st27{opacity:0.25;fill:#D8D8D8;} .st28{fill:#3A608D;} .st29{opacity:0.5;fill:#D8D8D8;} .st30{fill:none;stroke:#FFFFFF;stroke-width:0.7902;stroke-linecap:round;stroke-linejoin:round;stroke-miterlimit:10;} .st31{fill:#E1EAFF;} .st32{opacity:0.2;fill:#42E8E0;} .st33{fill:#3F5D9E;} .st34{opacity:0.3;} .st35{fill:#42E8E0;} .st36{fill:url(#SVGID_00000137121042644204881910000000146277870154978968_);} .st37{fill:url(#SVGID_00000096036117154143408120000004801909820697734033_);} .st38{fill:url(#SVGID_00000069374604317168721980000013965018448665204146_);} .st39{fill:#393091;} .st40{fill:#453C9E;} .st41{fill:url(#SVGID_00000126289729632338017570000014885115601443665542_);} .st42{fill:#BCBEFF;} .st43{fill:url(#SVGID_00000034805874473054538870000013600079758615564694_);} .st44{fill:url(#SVGID_00000144300931031445870670000013893659005696903319_);} .st45{fill:url(#SVGID_00000057828542603504877290000006683010947828556708_);} .st46{fill:url(#SVGID_00000118376847428083483250000003916958872006290829_);} .st47{fill:url(#SVGID_00000062885805001710733150000003437136054282506373_);} .st48{fill:url(#SVGID_00000003092147414169013070000013369291775314776223_);} .st49{fill:url(#SVGID_00000176040780544573378620000015833518127757277322_);} .st50{fill:url(#SVGID_00000178187540105531566320000013398180817934772399_);} .st51{fill:url(#SVGID_00000168806829197349304490000006851370453381638327_);} .st52{fill:url(#SVGID_00000029724876495934796490000004958245171795598502_);} .st53{opacity:0.5;} .st54{fill:url(#SVGID_00000063620011717095277770000017338669502826664606_);} .st55{fill:url(#SVGID_00000118377283231558245070000002093287255552681101_);} .st56{opacity:0.5;fill:url(#SVGID_00000108989896402842101460000006305589112884961721_);} .st57{opacity:0.5;fill:url(#SVGID_00000141450528123127494880000017142675420869140384_);} .st58{opacity:0.8;fill:url(#SVGID_00000039099014973970569140000014385548891385042583_);} .st59{opacity:0.3;fill:#FFFFFF;} .st60{opacity:0.8;} .st61{fill:#D2CDCD;} .st62{fill:#B2B2B2;} .st63{fill:none;} .st64{fill:#DADADA;} .st65{fill:#707070;} .st66{opacity:0.8;fill:#DADADA;} .st67{opacity:0.8;fill:#588ED7;} .st68{opacity:0.8;fill:#84C3BB;} .st69{opacity:0.5;fill:#42E8E0;} </style> <g> <circle class="st23" cx="181.5" cy="76.6" r="0.6"></circle> <circle class="st24" cx="179.6" cy="79.6" r="0.6"></circle> <circle class="st25" cx="175.8" cy="79.6" r="0.6"></circle> <circle class="st26" cx="172" cy="79.6" r="0.6"></circle> <circle class="st25" cx="167.8" cy="79.6" r="0.6"></circle> <circle class="st24" cx="164.2" cy="79.6" r="0.6"></circle> <circle class="st25" cx="156.2" cy="79.6" r="0.6"></circle> <circle class="st25" cx="152.3" cy="79.6" r="0.6"></circle> <circle class="st26" cx="152.8" cy="83.2" r="0.6"></circle> <circle class="st27" cx="157" cy="83.2" r="0.6"></circle> <circle class="st25" cx="149.2" cy="83.2" r="0.6"></circle> <circle class="st25" cx="169.9" cy="83.2" r="0.6"></circle> <circle class="st26" cx="150.9" cy="86.4" r="0.6"></circle> <circle class="st24" cx="154.9" cy="86.4" r="0.6"></circle> <circle class="st28" cx="162.7" cy="86.4" r="0.6"></circle> <circle class="st29" cx="166.5" cy="86.4" r="0.6"></circle> <circle class="st25" cx="148.5" cy="79.6" r="0.6"></circle> <circle class="st24" cx="177.7" cy="76.6" r="0.6"></circle> <circle class="st25" cx="170.1" cy="76.6" r="0.6"></circle> <circle class="st28" cx="165.9" cy="76.6" r="0.6"></circle> <circle class="st25" cx="162.1" cy="76.6" r="0.6"></circle> <circle class="st25" cx="154.4" cy="76.6" r="0.6"></circle> <circle class="st27" cx="158.3" cy="76.6" r="0.6"></circle> <circle class="st25" cx="150.4" cy="76.6" r="0.6"></circle> </g> <g> <path class="st31" d="M183.4,57.4h-42.4c-1.8,0-3.3-1.5-3.3-3.3v0c0-1.8,1.5-3.3,3.3-3.3h42.4c1.8,0,3.3,1.5,3.3,3.3v0 C186.8,56,185.3,57.4,183.4,57.4z"></path> <g> <g> <g> <g> <ellipse class="st32" cx="117.2" cy="86.7" rx="19.7" ry="11.4"></ellipse> <ellipse class="st33" cx="117.2" cy="86.7" rx="11.2" ry="6.5"></ellipse> </g> <g class="st34"> <path class="st0" d="M98.3,38.1c6.4-1.9,14-2.9,22-2.8c1.1,0,2.1,0,3.2,0.1c7.1,0.6,9.6,8.1,5.3,11.4c-2,1.5-4.3,1.5-5.3,1.5 c-1,0-2.1-0.1-3.2-0.1c-8.1-0.1-15.7,1-22,2.8c-6.5,1.6-6.8-5-4.6-9C94.5,40.6,95.9,38.9,98.3,38.1L98.3,38.1z"></path> <path class="st0" d="M79,67.2c0.2-2,0.3-3.7,2.4-6.5c4.4-6.5,3.5-14,1.1-13.7c-0.4,0.1-0.8,0.5-1.1,0.8c-1.5,1.9-2.3,4-2.4,6.1 c0,0.1,0,0.2,0,0.3V67.2L79,67.2z"></path> </g> <g> <rect x="132.7" y="68.6" transform="matrix(0.927 -0.3752 0.3752 0.927 -18.4184 55.5372)" class="st35" width="1.5" height="12.9"></rect> <g> <g> <g> <radialGradient id="SVGID_1_" cx="-290.8539" cy="-279.8687" r="27.0346" gradientTransform="matrix(0.981 0.1942 -0.1942 0.981 358.5325 379.3391)" gradientUnits="userSpaceOnUse"> <stop offset="0" style="stop-color:#C0BFF6"></stop> <stop offset="1" style="stop-color:#393091"></stop> </radialGradient> <circle class="st1" cx="105.2" cy="63.3" r="4.7"></circle> </g> </g> <g> <g> <radialGradient id="SVGID_00000076561231795292476880000000102423558332431026_" cx="702.4596" cy="171.743" r="26.7081" gradientTransform="matrix(0.7781 0 0 1.0592 -422.2024 -114.1817)" gradientUnits="userSpaceOnUse"> <stop offset="0" style="stop-color:#C0BFF6"></stop> <stop offset="1" style="stop-color:#393091"></stop> </radialGradient> <path style="fill:url(#SVGID_00000076561231795292476880000000102423558332431026_);" d="M129.3,70.2 c0,9.1-5.4,16.5-12.1,16.5c-6.7,0-12.1-7.4-12.1-16.5c0-9.1,5.4-11.8,12.1-11.8C123.9,58.4,129.3,61.1,129.3,70.2z"></path> </g> </g> <g> <g> <linearGradient id="SVGID_00000137852303881284767430000003824150348046995373_" gradientUnits="userSpaceOnUse" x1="693.29" y1="189.6135" x2="693.29" y2="162.9165" gradientTransform="matrix(0.7781 0 0 1.0592 -422.2024 -114.1817)"> <stop offset="0" style="stop-color:#42E8E0"></stop> <stop offset="4.674554e-03" style="stop-color:#42E6DF"></stop> <stop offset="0.1358" style="stop-color:#40B6CB"></stop> <stop offset="0.2707" style="stop-color:#3E8DB9"></stop> <stop offset="0.4074" style="stop-color:#3C6BAA"></stop> <stop offset="0.5467" style="stop-color:#3B519F"></stop> <stop offset="0.6893" style="stop-color:#3A3F97"></stop> <stop offset="0.8375" style="stop-color:#393493"></stop> <stop offset="1" style="stop-color:#393091"></stop> </linearGradient> <path style="fill:url(#SVGID_00000137852303881284767430000003824150348046995373_);" d="M129.3,70.2 c0,9.1-5.4,16.5-12.1,16.5c-6.7,0-12.1-7.4-12.1-16.5c0-9.1,5.4-11.8,12.1-11.8C123.9,58.4,129.3,61.1,129.3,70.2z"></path> </g> </g> <ellipse class="st39" cx="117.2" cy="63.3" rx="8.3" ry="4.8"></ellipse> <path class="st40" d="M111.4,61.2c3.2-1.9,8.4-1.9,11.7,0c1.3,0.8,2.1,1.7,2.3,2.7c0.3-1.4-0.5-2.9-2.3-4 c-3.2-1.9-8.4-1.9-11.7,0c-1.9,1.1-2.7,2.6-2.3,4C109.3,62.9,110.1,61.9,111.4,61.2z"></path> <radialGradient id="SVGID_00000132083681202517137940000007295927931753928380_" cx="105.071" cy="32.7505" r="14.6346" gradientUnits="userSpaceOnUse"> <stop offset="0" style="stop-color:#C0BFF6"></stop> <stop offset="1" style="stop-color:#393091"></stop> </radialGradient> <path style="fill:url(#SVGID_00000132083681202517137940000007295927931753928380_);" d="M107.7,51.9l1.5-2.6 c0.9-0.9,1.6-2.1,1.9-3.3l1.5-2.6l-2.2-1.2c-0.1,0-0.1-0.1-0.2-0.1l0,0l0,0c-0.6-0.3-1.4-0.2-2.3,0.3c-1.9,1.1-3.5,3.8-3.5,6 c0,1.1,0.4,1.9,1,2.3v0l0,0c0,0,0,0,0,0L107.7,51.9z"></path> <ellipse transform="matrix(0.5 -0.866 0.866 0.5 13.7955 119.2396)" class="st42" cx="110.2" cy="47.7" rx="4.9" ry="2.8"></ellipse> <g> <g> <radialGradient id="SVGID_00000135665982167959802650000016673590437957817772_" cx="125.4229" cy="50.0673" r="20.8453" gradientUnits="userSpaceOnUse"> <stop offset="0" style="stop-color:#C0BFF6"></stop> <stop offset="1" style="stop-color:#393091"></stop> </radialGradient> <circle style="fill:url(#SVGID_00000135665982167959802650000016673590437957817772_);" cx="117.7" cy="51.9" r="12.3"></circle> </g> </g> <g> <g> <linearGradient id="SVGID_00000044891409853008781500000013485745821828122533_" gradientUnits="userSpaceOnUse" x1="116.0095" y1="64.1091" x2="119.4428" y2="39.6798"> <stop offset="0" style="stop-color:#42E8E0"></stop> <stop offset="4.674554e-03" style="stop-color:#42E6DF"></stop> <stop offset="0.1358" style="stop-color:#40B6CB"></stop> <stop offset="0.2707" style="stop-color:#3E8DB9"></stop> <stop offset="0.4074" style="stop-color:#3C6BAA"></stop> <stop offset="0.5467" style="stop-color:#3B519F"></stop> <stop offset="0.6893" style="stop-color:#3A3F97"></stop> <stop offset="0.8375" style="stop-color:#393493"></stop> <stop offset="1" style="stop-color:#393091"></stop> </linearGradient> <circle style="fill:url(#SVGID_00000044891409853008781500000013485745821828122533_);" cx="117.7" cy="51.9" r="12.3"></circle> </g> </g> <radialGradient id="SVGID_00000041973969412647264840000018381053730407668658_" cx="125.2561" cy="49.8456" r="9.8996" gradientUnits="userSpaceOnUse"> <stop offset="0" style="stop-color:#C0BFF6"></stop> <stop offset="1" style="stop-color:#393091"></stop> </radialGradient> <path style="fill:url(#SVGID_00000041973969412647264840000018381053730407668658_);" d="M124.6,60.2l1.5-2.6 c0.9-0.9,1.6-2.1,1.9-3.3l1.5-2.6l-2.2-1.2c-0.1,0-0.1-0.1-0.2-0.1l0,0v0c-0.6-0.3-1.4-0.2-2.3,0.3c-1.9,1.1-3.5,3.8-3.5,6 c0,1.1,0.4,1.9,1,2.3l0,0l0,0l0,0L124.6,60.2z"></path> <linearGradient id="SVGID_00000013172791327617418700000003854073353278495401_" gradientUnits="userSpaceOnUse" x1="123.2629" y1="59.7384" x2="126.7416" y2="50.1808"> <stop offset="0" style="stop-color:#42E8E0"></stop> <stop offset="4.674554e-03" style="stop-color:#42E6DF"></stop> <stop offset="0.1358" style="stop-color:#40B6CB"></stop> <stop offset="0.2707" style="stop-color:#3E8DB9"></stop> <stop offset="0.4074" style="stop-color:#3C6BAA"></stop> <stop offset="0.5467" style="stop-color:#3B519F"></stop> <stop offset="0.6893" style="stop-color:#3A3F97"></stop> <stop offset="0.8375" style="stop-color:#393493"></stop> <stop offset="1" style="stop-color:#393091"></stop> </linearGradient> <path style="fill:url(#SVGID_00000013172791327617418700000003854073353278495401_);" d="M124.6,60.2l1.5-2.6 c0.9-0.9,1.6-2.1,1.9-3.3l1.5-2.6l-2.2-1.2c-0.1,0-0.1-0.1-0.2-0.1l0,0v0c-0.6-0.3-1.4-0.2-2.3,0.3c-1.9,1.1-3.5,3.8-3.5,6 c0,1.1,0.4,1.9,1,2.3l0,0l0,0l0,0L124.6,60.2z"></path> <ellipse transform="matrix(0.5 -0.866 0.866 0.5 15.0692 138.027)" class="st42" cx="127.1" cy="56" rx="4.9" ry="2.8"></ellipse> <path class="st0" d="M123.8,58c0-2.2,1.6-4.9,3.5-6c0.7-0.4,1.3-0.5,1.8-0.5c-0.6-0.1-1.2,0-2,0.4c-1.9,1.1-3.5,3.8-3.5,6 c0,1.5,0.7,2.3,1.7,2.5C124.3,60.2,123.8,59.4,123.8,58z"></path> <path class="st39" d="M129.6,54.5c0,1.6-1.1,3.5-2.5,4.3c-1.4,0.8-2.5,0.2-2.5-1.4s1.1-3.5,2.5-4.3 C128.4,52.3,129.6,52.9,129.6,54.5z"></path> <path class="st40" d="M128.5,52.8c0.3,0.3,0.4,0.8,0.4,1.3c0,1.6-1.1,3.5-2.5,4.3c-0.5,0.3-1,0.4-1.4,0.3 c0.4,0.5,1.2,0.6,2.1,0.1c1.4-0.8,2.5-2.7,2.5-4.3C129.6,53.6,129.1,52.9,128.5,52.8z"></path> <g> <path class="st39" d="M113.9,57.7c-0.3,2.4-2.1,3.2-4.1,1.7c-1.9-1.5-3.3-4.7-2.9-7.1c0.3-2.4,2.1-3.2,4.1-1.7 C112.9,52.1,114.2,55.3,113.9,57.7z"></path> <path class="st35" d="M112.3,55.6c-0.1,0.9-0.8,1.2-1.5,0.6c-0.7-0.5-1.2-1.7-1.1-2.6c0.1-0.9,0.8-1.2,1.5-0.6 C111.9,53.6,112.4,54.8,112.3,55.6z"></path> <path class="st40" d="M110.7,59.1c-1.9-1.5-3.3-4.7-2.9-7.1c0.1-1,0.5-1.7,1-2.1c-1,0.1-1.8,1-2,2.5c-0.3,2.4,1,5.6,2.9,7.1 c1.2,0.9,2.3,1,3,0.4C112.2,59.9,111.5,59.7,110.7,59.1z"></path> <path class="st35" d="M110,59.4c-1.9-1.5-3.3-4.7-2.9-7.1c0.1-1.1,0.6-1.9,1.3-2.2c-0.7,0.3-1.3,1.1-1.4,2.3 c-0.3,2.4,1,5.6,2.9,7.1c1,0.8,2.1,0.9,2.8,0.5C111.9,60.3,110.9,60.1,110,59.4z"></path> </g> <g> <g> <radialGradient id="SVGID_00000039849101076679795920000014076429929753296787_" cx="-281.3014" cy="-263.6705" r="9.7709" gradientTransform="matrix(0.981 0.1942 -0.1942 0.981 358.5325 379.3391)" gradientUnits="userSpaceOnUse"> <stop offset="0" style="stop-color:#C0BFF6"></stop> <stop offset="1" style="stop-color:#393091"></stop> </radialGradient> <path style="fill:url(#SVGID_00000039849101076679795920000014076429929753296787_);" d="M135.6,70c-0.5,2.5-3,4.2-5.5,3.7 c-2.5-0.5-4.2-3-3.7-5.5c0.5-2.5,3-4.2,5.5-3.7C134.5,65,136.1,67.5,135.6,70z"></path> </g> </g> <g> <g> <linearGradient id="SVGID_00000155825532099070087720000013633324523754978970_" gradientUnits="userSpaceOnUse" x1="-286.6121" y1="-256.697" x2="-280.2478" y2="-263.5696" gradientTransform="matrix(0.981 0.1942 -0.1942 0.981 358.5325 379.3391)"> <stop offset="0" style="stop-color:#42E8E0"></stop> <stop offset="4.674554e-03" style="stop-color:#42E6DF"></stop> <stop offset="0.1358" style="stop-color:#40B6CB"></stop> <stop offset="0.2707" style="stop-color:#3E8DB9"></stop> <stop offset="0.4074" style="stop-color:#3C6BAA"></stop> <stop offset="0.5467" style="stop-color:#3B519F"></stop> <stop offset="0.6893" style="stop-color:#3A3F97"></stop> <stop offset="0.8375" style="stop-color:#393493"></stop> <stop offset="1" style="stop-color:#393091"></stop> </linearGradient> <path style="fill:url(#SVGID_00000155825532099070087720000013633324523754978970_);" d="M135.6,70c-0.5,2.5-3,4.2-5.5,3.7 c-2.5-0.5-4.2-3-3.7-5.5c0.5-2.5,3-4.2,5.5-3.7C134.5,65,136.1,67.5,135.6,70z"></path> </g> </g> </g> <radialGradient id="SVGID_00000075163803277875217750000002463081919651886256_" cx="-6.5911" cy="-1829.9999" r="9.0521" fx="-6.5775" fy="-1829.4109" gradientTransform="matrix(0.9112 0.1087 -0.1791 1.501 -182.0643 2828.5247)" gradientUnits="userSpaceOnUse"> <stop offset="0" style="stop-color:#C0BFF6"></stop> <stop offset="1" style="stop-color:#393091"></stop> </radialGradient> <path style="fill:url(#SVGID_00000075163803277875217750000002463081919651886256_);" d="M138.5,84.6c-0.3,2.2-2.2,6.4-4,6.2 c-1.8-0.2-2.7-4.8-2.4-7c0.3-2.2,1.9-3.9,3.7-3.6C137.5,80.4,138.7,82.4,138.5,84.6z"></path> <linearGradient id="SVGID_00000161596888746378101910000014855462951219459235_" gradientUnits="userSpaceOnUse" x1="-14.9822" y1="166.8101" x2="-7.9124" y2="166.8101" gradientTransform="matrix(0.9112 0.1087 -0.136 1.1399 168.2172 -103.3713)"> <stop offset="0" style="stop-color:#42E8E0"></stop> <stop offset="4.674554e-03" style="stop-color:#42E6DF"></stop> <stop offset="0.1358" style="stop-color:#40B6CB"></stop> <stop offset="0.2707" style="stop-color:#3E8DB9"></stop> <stop offset="0.4074" style="stop-color:#3C6BAA"></stop> <stop offset="0.5467" style="stop-color:#3B519F"></stop> <stop offset="0.6893" style="stop-color:#3A3F97"></stop> <stop offset="0.8375" style="stop-color:#393493"></stop> <stop offset="1" style="stop-color:#393091"></stop> </linearGradient> <path style="fill:url(#SVGID_00000161596888746378101910000014855462951219459235_);" d="M138.5,84.6c-0.3,2.2-2.2,6.4-4,6.2 c-1.8-0.2-2.7-4.8-2.4-7c0.3-2.2,1.9-3.9,3.7-3.6C137.5,80.4,138.7,82.4,138.5,84.6z"></path> <path class="st35" d="M92.8,70.3c-0.3,0-0.5-0.1-0.7-0.4c-0.2-0.4-0.1-0.8,0.3-1l9.7-5.1c0.4-0.2,0.8-0.1,1,0.3 c0.2,0.4,0.1,0.8-0.3,1l-9.7,5.1C93,70.3,92.9,70.3,92.8,70.3z"></path> <radialGradient id="SVGID_00000129191924374681416340000009584427583353272205_" cx="-2856.3977" cy="-2227.8721" r="9.0521" fx="-2856.384" fy="-2227.2832" gradientTransform="matrix(0.4411 0.8047 -1.3256 0.7266 -1594.6165 3984.8323)" gradientUnits="userSpaceOnUse"> <stop offset="0" style="stop-color:#C0BFF6"></stop> <stop offset="1" style="stop-color:#393091"></stop> </radialGradient> <path style="fill:url(#SVGID_00000129191924374681416340000009584427583353272205_);" d="M92.9,73.1c-2,1.1-6.5,1.9-7.4,0.4 c-0.9-1.6,2.3-5,4.3-6c2-1.1,4.3-0.7,5.1,0.9C95.8,69.9,94.9,72,92.9,73.1z"></path> <linearGradient id="SVGID_00000179643379923381826540000001940473445018296510_" gradientUnits="userSpaceOnUse" x1="-2855.3655" y1="-357.696" x2="-2859.603" y2="-352.0368" gradientTransform="matrix(0.4411 0.8047 -1.0067 0.5518 994.2698 2565.8525)"> <stop offset="0" style="stop-color:#42E8E0"></stop> <stop offset="4.674554e-03" style="stop-color:#42E6DF"></stop> <stop offset="0.1358" style="stop-color:#40B6CB"></stop> <stop offset="0.2707" style="stop-color:#3E8DB9"></stop> <stop offset="0.4074" style="stop-color:#3C6BAA"></stop> <stop offset="0.5467" style="stop-color:#3B519F"></stop> <stop offset="0.6893" style="stop-color:#3A3F97"></stop> <stop offset="0.8375" style="stop-color:#393493"></stop> <stop offset="1" style="stop-color:#393091"></stop> </linearGradient> <path style="fill:url(#SVGID_00000179643379923381826540000001940473445018296510_);" d="M92.9,73.1c-2,1.1-6.5,1.9-7.4,0.4 c-0.9-1.6,2.3-5,4.3-6c2-1.1,4.3-0.7,5.1,0.9C95.8,69.9,94.9,72,92.9,73.1z"></path> </g> <g class="st53"> <g> <path class="st0" d="M83.7,71c-0.3,2.4-1.5,3.8-2.8,2c-1.7-2.3-1.8-4.5-1.9-5.8V54.3c0,2,0.7,4,1.9,5.8 C83.6,64.6,84,69.1,83.7,71L83.7,71z"></path> <path class="st0" d="M122,73.4c-1,0-2,0-3.1,0c-8.1-0.1-15.6-1.2-21.9-3.2c-6.3-1.7-6.6,4.9-4.5,8.9c1.6,2.9,3.7,3.7,4.5,4 c6.3,2,13.8,3.2,21.9,3.2c1,0,2.1,0,3.1,0c7.4-0.5,9.3-7.6,5.8-10.9C126.9,74.4,125.1,73.4,122,73.4L122,73.4z"></path> </g> </g> </g> <linearGradient id="SVGID_00000052787702292479699240000009203845993289386115_" gradientUnits="userSpaceOnUse" x1="136.2468" y1="61.5401" x2="138.2154" y2="61.5401"> <stop offset="0" style="stop-color:#FF1744"></stop> <stop offset="1" style="stop-color:#FF9080"></stop> </linearGradient> <path style="fill:url(#SVGID_00000052787702292479699240000009203845993289386115_);" d="M138.2,61.5c0,0.5-0.4,1-1,1 c-0.5,0-1-0.4-1-1s0.4-1,1-1C137.8,60.6,138.2,61,138.2,61.5z"></path> <linearGradient id="SVGID_00000064323591023128269620000004765466957241319592_" gradientUnits="userSpaceOnUse" x1="88.3716" y1="56.8437" x2="91.0901" y2="56.8437"> <stop offset="0" style="stop-color:#FF1744"></stop> <stop offset="1" style="stop-color:#FF9080"></stop> </linearGradient> <path style="fill:url(#SVGID_00000064323591023128269620000004765466957241319592_);" d="M90.7,55.9c0.5,0.5,0.5,1.4,0,1.9 c-0.5,0.5-1.4,0.5-1.9,0c-0.5-0.5-0.5-1.4,0-1.9C89.3,55.4,90.2,55.4,90.7,55.9z"></path> <linearGradient id="SVGID_00000007421897352033286090000003004858565948158612_" gradientUnits="userSpaceOnUse" x1="133.7779" y1="48.6565" x2="135.0293" y2="48.6565"> <stop offset="0" style="stop-color:#FF1744"></stop> <stop offset="1" style="stop-color:#FF9080"></stop> </linearGradient> <path style="opacity:0.5;fill:url(#SVGID_00000007421897352033286090000003004858565948158612_);" d="M135,48.7 c0,0.3-0.3,0.6-0.6,0.6c-0.3,0-0.6-0.3-0.6-0.6c0-0.3,0.3-0.6,0.6-0.6C134.7,48,135,48.3,135,48.7z"></path> <linearGradient id="SVGID_00000129884482909933405930000013542493340643979669_" gradientUnits="userSpaceOnUse" x1="88.0369" y1="80.1914" x2="89.2882" y2="80.1914"> <stop offset="0" style="stop-color:#FF1744"></stop> <stop offset="1" style="stop-color:#FF9080"></stop> </linearGradient> <path style="opacity:0.5;fill:url(#SVGID_00000129884482909933405930000013542493340643979669_);" d="M89.3,80.2 c0,0.3-0.3,0.6-0.6,0.6S88,80.5,88,80.2c0-0.3,0.3-0.6,0.6-0.6S89.3,79.8,89.3,80.2z"></path> <linearGradient id="SVGID_00000127729404410696573850000008685181737247784080_" gradientUnits="userSpaceOnUse" x1="100.9129" y1="55.3371" x2="101.5661" y2="55.3371"> <stop offset="0" style="stop-color:#FF1744"></stop> <stop offset="1" style="stop-color:#FF9080"></stop> </linearGradient> <circle style="opacity:0.8;fill:url(#SVGID_00000127729404410696573850000008685181737247784080_);" cx="101.2" cy="55.3" r="0.3"></circle> </g> <path class="st59" d="M144.5,67c-0.2-2-0.3-3.7-2.4-6.5c-4.4-6.5-3.5-14-1.1-13.7c0.4,0.1,0.8,0.5,1.1,0.8c1.5,1.9,2.3,4,2.4,6.1 c0,0.1,0,0.2,0,0.3V67L144.5,67z"></path> <path class="st59" d="M139.8,70.8c0.3,2.4,1.5,3.8,2.8,2c1.7-2.3,1.8-4.5,1.9-5.8V54.1c0,2-0.7,4-1.9,5.8 C139.9,64.5,139.5,68.9,139.8,70.8L139.8,70.8z"></path> </g> <g id="Group_52_00000013165740655790970650000011085195032765647505_" transform="translate(706 5.911)" class="st60"> <path id="Path_39_00000146471315423008528980000006720929364303420606_" class="st61" d="M-558.2,101.8h4.4c0.5,0,0.9,0.4,0.9,0.9 c0,0.5-0.4,0.9-0.9,0.9h-4.4c-0.5,0-0.9-0.4-0.9-0.9C-559.1,102.2-558.6,101.8-558.2,101.8z"></path> <path id="Path_48_00000084501829635907962200000008201667853510885521_" class="st62" d="M-558.2,101.8h3.1c0.5,0,0.9,0.4,0.9,0.9 c0,0.5-0.4,0.9-0.9,0.9h-3.1c-0.5,0-0.9-0.4-0.9-0.9C-559.1,102.2-558.6,101.8-558.2,101.8z"></path> </g> <g id="Task_item_00000142875041623838539680000003173729160508208278_" transform="translate(343 455)" class="st60"> <g id="Group_54_00000016076453267033403990000018404783069393329832_" transform="translate(0.467 2.467)"> <g id="Group_50_00000032642366618389233300000016425503713494713734_" transform="translate(4.318 5.646)"> <polygon class="st0" points="-287,-353.6 -287.6,-354.1 -287.4,-354.3 -287,-353.9 -286,-354.9 -285.8,-354.8 "></polygon> </g> <g id="Ellipse_13_00000095318805434472461950000017620325566772797864_" transform="translate(-0.467 -0.467)"> <circle class="st63" cx="-281.9" cy="-348.3" r="2"></circle> <path class="st64" d="M-281.9-346.2c-1.1,0-2-0.9-2-2s0.9-2,2-2s2,0.9,2,2S-280.8-346.2-281.9-346.2z M-281.9-350 c-1,0-1.8,0.8-1.8,1.8s0.8,1.8,1.8,1.8s1.8-0.8,1.8-1.8S-280.9-350-281.9-350z"></path> </g> </g> </g> <g id="Task_item-3_00000121273319550930642770000003613400660576573062_" transform="translate(343 497)" class="st60"> <g id="Group_54-3_00000116918585508236558150000010006461533076248463_" transform="translate(0.467 2.467)"> <g id="Group_50-3_00000156563567032062619370000006990508594906004664_" transform="translate(4.318 5.646)"> <polygon class="st65" points="-206.1,-450.4 -206.5,-450.7 -206.4,-450.8 -206.1,-450.6 -205.6,-451.2 -205.5,-451.1 "></polygon> </g> <g id="Ellipse_13-3_00000169522813509369868360000003920582803121573290_" transform="translate(-0.467 -0.467)"> <circle class="st63" cx="-201.2" cy="-444.8" r="1.1"></circle> <path class="st65" d="M-201.2-443.6c-0.6,0-1.1-0.5-1.1-1.1s0.5-1.1,1.1-1.1s1.1,0.5,1.1,1.1S-200.6-443.6-201.2-443.6z M-201.2-445.7c-0.5,0-1,0.4-1,1s0.4,1,1,1s1-0.4,1-1S-200.6-445.7-201.2-445.7z"></path> </g> </g> </g> <g id="TaskList_title-2_00000002349162850390732960000015365062272538875529_" transform="translate(320 418)"> <g id="Component_21_1-2_00000105398750371991382430000016324726633671020980_"> <polygon class="st18" points="-259.4,-318.5 -260.5,-319.6 -260.3,-319.7 -259.4,-318.8 -258.4,-319.7 -258.3,-319.6 "></polygon> <g id="Group_49-2_00000087374995645507276500000010728387740301007270_" transform="translate(-315 -215)"> <g id="Group_47-2_00000150806206061196604120000013391999687437583807_" transform="translate(201.878 1188.611) rotate(-90)"> <circle id="Ellipse_8-3_00000072264109431541429640000015970168166089191858_" class="st18" cx="1292" cy="-153.4" r="0.3"></circle> <circle id="Ellipse_9-3_00000005266096227727600600000008074843074306918573_" class="st18" cx="1293" cy="-153.4" r="0.3"></circle> <path id="Path_53-3_00000106107651205535959370000014491067352794441637_" class="st18" d="M1294-153.6c0.1,0,0.3,0.1,0.3,0.3 s-0.1,0.3-0.3,0.3c-0.1,0-0.3-0.1-0.3-0.3S1293.9-153.6,1294-153.6z"></path> </g> <g id="Group_48-2_00000133495050060936256060000004761926097849292455_" transform="translate(205.878 1188.611) rotate(-90)"> <circle id="Ellipse_8-4_00000069362611372949349520000011097301524136218517_" class="st18" cx="1292" cy="-156.4" r="0.3"></circle> <circle id="Ellipse_9-4_00000113325064712974552010000005169330120694864319_" class="st18" cx="1293" cy="-156.4" r="0.3"></circle> <path id="Path_53-4_00000059285702860829977150000005261447125034777259_" class="st18" d="M1294-156.6c0.1,0,0.3,0.1,0.3,0.3 s-0.1,0.3-0.3,0.3c-0.1,0-0.3-0.1-0.3-0.3S1293.9-156.6,1294-156.6z"></path> </g> </g> </g> </g> <path class="st18" d="M94.4,100.2H66.8c-0.8,0-1.5-0.7-1.5-1.5v0c0-0.8,0.7-1.5,1.5-1.5h27.6c0.8,0,1.5,0.7,1.5,1.5v0 C95.9,99.6,95.2,100.2,94.4,100.2z"></path> <path class="st66" d="M131.2,110.3H67.4c-0.8,0-1.5-0.7-1.5-1.5v0c0-0.8,0.7-1.5,1.5-1.5h63.8c0.8,0,1.5,0.7,1.5,1.5v0 C132.7,109.7,132,110.3,131.2,110.3z"></path> <path class="st67" d="M161.1,55.1h-15.8c-0.5,0-0.8-0.4-0.8-0.8l0,0c0-0.5,0.4-0.8,0.8-0.8h15.8c0.5,0,0.8,0.4,0.8,0.8l0,0 C161.9,54.7,161.6,55.1,161.1,55.1z"></path> <path class="st68" d="M142.4,110.6H136c-0.9,0-1.6-0.7-1.6-1.6l0,0c0-0.9,0.7-1.6,1.6-1.6h6.4c0.9,0,1.6,0.7,1.6,1.6l0,0 C144,109.8,143.3,110.6,142.4,110.6z"></path> <path class="st69" d="M181.4,55.4h-15.9c-0.7,0-1.2-0.5-1.2-1.2v-0.1c0-0.7,0.5-1.2,1.2-1.2h15.9c0.7,0,1.2,0.5,1.2,1.2v0.1 C182.6,54.9,182.1,55.4,181.4,55.4z"></path> <path class="st18" d="M94.2,51.8H83.9c-1.4,0-2.6-1.2-2.6-2.6v0c0-1.4,1.2-2.6,2.6-2.6h10.3c1.4,0,2.6,1.2,2.6,2.6v0 C96.8,50.6,95.6,51.8,94.2,51.8z"></path> <g> <g> <path class="st0" d="M84.5,49.2c0-0.5,0.2-0.7,0.6-0.7c0.3,0,0.6,0.2,0.6,0.5h-0.2c0-0.2-0.2-0.3-0.3-0.3c-0.2,0-0.4,0.2-0.4,0.5 c0,0.3,0.1,0.5,0.4,0.5c0.2,0,0.3-0.1,0.3-0.3h0.2c0,0.3-0.3,0.5-0.6,0.5C84.7,49.9,84.5,49.7,84.5,49.2z"></path> <path class="st0" d="M86.6,49.9h-0.3v-1.4h0.6c0.3,0,0.5,0.2,0.5,0.4c0,0.2-0.1,0.3-0.3,0.4l0.3,0.6h-0.3l-0.3-0.5h-0.3V49.9z M86.6,49.2h0.3c0.2,0,0.3-0.1,0.3-0.2c0-0.1-0.1-0.2-0.3-0.2h-0.3V49.2z"></path> <path class="st0" d="M88.9,49.9H88v-1.4h0.9v0.2h-0.7v0.4h0.6v0.2h-0.6v0.4h0.7V49.9z"></path> <path class="st0" d="M90.3,49.5h-0.5l-0.1,0.4h-0.3l0.5-1.4h0.3l0.5,1.4h-0.3L90.3,49.5z M89.9,49.3h0.4l-0.2-0.6h0L89.9,49.3z"></path> <path class="st0" d="M91.5,49.9v-1.2H91v-0.2h1.1v0.2h-0.4v1.2H91.5z"></path> <path class="st0" d="M93.6,49.9h-0.9v-1.4h0.9v0.2H93v0.4h0.6v0.2H93v0.4h0.7V49.9z"></path> </g> </g> </g> </svg> 